<?xml version="1.0" encoding="UTF-8" standalone="no"?>
<!DOCTYPE svg PUBLIC "-//W3C//DTD SVG 1.1//EN" "http://www.w3.org/Graphics/SVG/1.1/DTD/svg11.dtd">
<svg width="100%" height="100%" viewBox="0 0 548 52" version="1.1" xmlns="http://www.w3.org/2000/svg" xmlns:xlink="http://www.w3.org/1999/xlink" xml:space="preserve" xmlns:serif="http://www.serif.com/" style="fill-rule:evenodd;clip-rule:evenodd;stroke-linejoin:round;stroke-miterlimit:2;">
    <g transform="matrix(1,0,0,1,-311.603,-188.554)">
        <g transform="matrix(72,0,0,72,302.963,239.746)">
            <path d="M0.176,-0L0.12,-0L0.12,-0.7L0.168,-0.7L0.479,-0.165L0.788,-0.7L0.835,-0.7L0.836,-0L0.78,-0L0.779,-0.588L0.492,-0.092L0.464,-0.092L0.176,-0.585L0.176,-0Z" style="fill:rgb(246,240,135);fill-rule:nonzero;"/>
        </g>
        <g transform="matrix(72,0,0,72,392.675,239.746)">
            <path d="M0.12,-0.381L0.591,-0.381L0.591,-0.33L0.12,-0.33L0.12,-0.381ZM0.12,-0.711L0.591,-0.711L0.591,-0.66L0.12,-0.66L0.12,-0.711ZM0.12,-0L0.591,-0L0.591,-0.051L0.12,-0.051L0.12,-0Z" style="fill:rgb(246,240,135);fill-rule:nonzero;"/>
        </g>
        <g transform="matrix(72,0,0,72,461.723,239.746)">
            <rect x="0.12" y="-0.7" width="0.057" height="0.7" style="fill:rgb(246,240,135);fill-rule:nonzero;"/>
        </g>
        <g transform="matrix(72,0,0,72,503.987,239.746)">
            <path d="M0.176,-0L0.12,-0L0.12,-0.7L0.168,-0.7L0.479,-0.165L0.788,-0.7L0.835,-0.7L0.836,-0L0.78,-0L0.779,-0.588L0.492,-0.092L0.464,-0.092L0.176,-0.585L0.176,-0Z" style="fill:rgb(246,240,135);fill-rule:nonzero;"/>
        </g>
        <g transform="matrix(72,0,0,72,593.699,239.746)">
            <path d="M0.12,-0.7L0.414,-0.7C0.491,-0.7 0.55,-0.685 0.593,-0.654C0.636,-0.623 0.657,-0.579 0.657,-0.521C0.657,-0.48 0.647,-0.446 0.625,-0.419C0.605,-0.392 0.577,-0.373 0.543,-0.361C0.591,-0.352 0.628,-0.332 0.655,-0.303C0.681,-0.273 0.694,-0.234 0.694,-0.186C0.694,-0.126 0.673,-0.08 0.629,-0.048C0.587,-0.016 0.521,-0 0.434,-0L0.12,-0L0.12,-0.049L0.434,-0.049C0.5,-0.049 0.55,-0.06 0.585,-0.083C0.619,-0.105 0.636,-0.141 0.636,-0.19C0.636,-0.239 0.619,-0.275 0.585,-0.298C0.55,-0.32 0.5,-0.331 0.434,-0.331L0.12,-0.331L0.12,-0.379L0.412,-0.379C0.471,-0.379 0.517,-0.39 0.55,-0.413C0.583,-0.436 0.599,-0.47 0.599,-0.515C0.599,-0.56 0.583,-0.594 0.55,-0.617C0.517,-0.64 0.471,-0.651 0.412,-0.651L0.12,-0.651L0.12,-0.7Z" style="fill:rgb(246,240,135);fill-rule:nonzero;"/>
        </g>
        <g transform="matrix(72,0,0,72,668.723,239.746)">
            <path d="M0.12,-0.381L0.591,-0.381L0.591,-0.33L0.12,-0.33L0.12,-0.381ZM0.12,-0.711L0.591,-0.711L0.591,-0.66L0.12,-0.66L0.12,-0.711ZM0.12,-0L0.591,-0L0.591,-0.051L0.12,-0.051L0.12,-0Z" style="fill:rgb(246,240,135);fill-rule:nonzero;"/>
        </g>
        <g transform="matrix(72,0,0,72,737.771,239.746)">
            <path d="M0.668,-0L0.603,-0L0.438,-0.231C0.428,-0.23 0.418,-0.229 0.407,-0.228C0.396,-0.227 0.385,-0.227 0.374,-0.227L0.177,-0.227L0.177,-0L0.12,-0L0.12,-0.277L0.374,-0.277C0.447,-0.277 0.503,-0.293 0.542,-0.326C0.58,-0.359 0.599,-0.404 0.599,-0.463C0.599,-0.522 0.58,-0.568 0.542,-0.601C0.503,-0.633 0.447,-0.649 0.374,-0.649L0.12,-0.649L0.12,-0.7L0.374,-0.7C0.418,-0.7 0.458,-0.695 0.493,-0.684C0.528,-0.673 0.557,-0.658 0.582,-0.637C0.606,-0.617 0.625,-0.592 0.637,-0.563C0.651,-0.534 0.657,-0.5 0.657,-0.463C0.657,-0.407 0.643,-0.36 0.615,-0.323C0.586,-0.286 0.546,-0.259 0.494,-0.244L0.668,-0Z" style="fill:rgb(246,240,135);fill-rule:nonzero;"/>
        </g>
        <g transform="matrix(72,0,0,72,810.563,239.746)">
            <path d="M0.673,-0.084C0.641,-0.054 0.603,-0.032 0.559,-0.017C0.515,-0.002 0.469,0.005 0.421,0.005C0.368,0.005 0.32,-0.004 0.275,-0.022C0.23,-0.04 0.191,-0.065 0.158,-0.096C0.125,-0.127 0.1,-0.165 0.082,-0.209C0.063,-0.252 0.054,-0.299 0.054,-0.35C0.054,-0.401 0.063,-0.449 0.082,-0.492C0.1,-0.535 0.126,-0.573 0.159,-0.604C0.192,-0.635 0.231,-0.66 0.276,-0.678C0.321,-0.696 0.369,-0.705 0.422,-0.705C0.473,-0.705 0.521,-0.697 0.564,-0.681C0.607,-0.665 0.645,-0.641 0.676,-0.608L0.64,-0.57C0.61,-0.6 0.577,-0.621 0.541,-0.634C0.505,-0.647 0.466,-0.653 0.424,-0.653C0.379,-0.653 0.338,-0.645 0.3,-0.63C0.261,-0.615 0.228,-0.594 0.201,-0.567C0.173,-0.54 0.151,-0.507 0.136,-0.47C0.12,-0.434 0.112,-0.393 0.112,-0.35C0.112,-0.307 0.12,-0.267 0.136,-0.23C0.151,-0.193 0.173,-0.161 0.201,-0.134C0.228,-0.107 0.261,-0.085 0.299,-0.07C0.337,-0.055 0.378,-0.047 0.423,-0.047C0.459,-0.047 0.494,-0.052 0.527,-0.061C0.56,-0.07 0.59,-0.086 0.618,-0.108L0.618,-0.348L0.673,-0.348L0.673,-0.084Z" style="fill:rgb(246,240,135);fill-rule:nonzero;"/>
        </g>
    </g>
</svg>
